<?xml version="1.0" encoding="UTF-8" standalone="no"?>
<svg
   xmlns:dc="http://purl.org/dc/elements/1.1/"
   xmlns:cc="http://creativecommons.org/ns#"
   xmlns:rdf="http://www.w3.org/1999/02/22-rdf-syntax-ns#"
   xmlns:svg="http://www.w3.org/2000/svg"
   xmlns="http://www.w3.org/2000/svg"
   xmlns:sodipodi="http://sodipodi.sourceforge.net/DTD/sodipodi-0.dtd"
   xmlns:inkscape="http://www.inkscape.org/namespaces/inkscape"
   inkscape:version="1.0 (4035a4fb49, 2020-05-01)"
   sodipodi:docname="fjolublar_logo.svg"
   id="svg32"
   xml:space="preserve"
   enable-background="new 0 0 2000 2000"
   viewBox="0 0 843.526 1010.4523"
   height="1010.4523"
   width="843.526"
   y="0px"
   x="0px"
   version="1.1"><metadata
   id="metadata38"><rdf:RDF><cc:Work
       rdf:about=""><dc:format>image/svg+xml</dc:format><dc:type
         rdf:resource="http://purl.org/dc/dcmitype/StillImage" /><dc:title></dc:title></cc:Work></rdf:RDF></metadata><defs
   id="defs36" /><sodipodi:namedview
   inkscape:current-layer="svg32"
   inkscape:window-maximized="1"
   inkscape:window-y="-8"
   inkscape:window-x="-8"
   inkscape:cy="560.00965"
   inkscape:cx="425.02755"
   inkscape:zoom="0.425"
   fit-margin-bottom="0"
   fit-margin-right="0"
   fit-margin-left="0"
   fit-margin-top="0"
   showgrid="false"
   id="namedview34"
   inkscape:window-height="1017"
   inkscape:window-width="1920"
   inkscape:pageshadow="2"
   inkscape:pageopacity="0"
   guidetolerance="10"
   gridtolerance="10"
   objecttolerance="10"
   borderopacity="1"
   bordercolor="#666666"
   pagecolor="#ffffff" />
<g
   transform="matrix(2.6263908,0,0,2.6263908,-2325.8283,-1371.8776)"
   id="Layer_1">
	<g
   id="g28">
		<g
   id="g16">
			
				<ellipse
   id="ellipse2"
   ry="130.00101"
   rx="131.33299"
   cy="716.50201"
   cx="1049.8879"
   fill="#f9e63a"
   clip-rule="evenodd"
   fill-rule="evenodd"
   transform="matrix(0.9938,0.1111,-0.1111,0.9938,86.087,-112.1884)" />
			
				<line
   id="line4"
   y2="569.71899"
   x2="1084.671"
   y1="523.01099"
   x1="1097.616"
   stroke-miterlimit="10"
   stroke-width="5"
   stroke="#f9e63a"
   fill="none" />
			
				<line
   id="line6"
   y2="570.01703"
   x2="1010.702"
   y1="523.30902"
   x1="997.75897"
   stroke-miterlimit="10"
   stroke-width="5"
   stroke="#f9e63a"
   fill="none" />
			
				<line
   id="line8"
   y2="605.64099"
   x2="943.62402"
   y1="570.12903"
   x1="910.638"
   stroke-miterlimit="10"
   stroke-width="5"
   stroke="#f9e63a"
   fill="none" />
			
				<line
   id="line10"
   y2="866.57703"
   x2="1177.475"
   y1="831.065"
   x1="1144.49"
   stroke-miterlimit="10"
   stroke-width="5"
   stroke="#f9e63a"
   fill="none" />
			
				<line
   id="line12"
   y2="902.53101"
   x2="1094.202"
   y1="855.82202"
   x1="1081.26"
   stroke-miterlimit="10"
   stroke-width="5"
   stroke="#f9e63a"
   fill="none" />
			
				<line
   id="line14"
   y2="906.40601"
   x2="1005.998"
   y1="859.69702"
   x1="1018.942"
   stroke-miterlimit="10"
   stroke-width="5"
   stroke="#f9e63a"
   fill="none" />
		</g>
		<g
   id="g26">
			<path
   id="path18"
   d="m 1182.485,713.361 c 2.442,-0.3 4.936,-0.439 7.292,-1.153 1.858,-0.563 4.682,-3.421 6.668,-2.412 4.286,2.177 -5.614,6.784 -7.288,8.829 -1.888,2.309 -5.576,8.551 -2.898,11.395 2.156,2.293 11.245,-1.045 13.669,-1.919 1.368,-0.494 4.779,-2.929 6.128,-1.694 2.005,1.837 -0.943,2.395 -2.333,2.89 -5.392,1.923 -10.307,3.905 -16.165,4.305 -3.819,0.262 -5.849,-1.508 -5.8,-5.047 0.031,-2.238 0.541,-4.488 1.431,-6.568 0.307,-0.716 3.906,-5.681 3.683,-5.979 -0.37,-0.49 -6.292,0.597 -7.343,0.468 -3.558,-0.435 -3.279,0.397 -4.764,3.321 -2.607,5.135 -6.606,9.256 -12.328,11.528 -1.746,0.694 -4.572,1.036 -6.039,-0.407 -1.045,-1.028 -0.066,-3.989 -0.742,-4.398 -0.486,-0.295 -5.205,3.395 -6.056,3.815 -2.743,1.357 -5.757,2.15 -8.42,0.175 -2.242,-1.663 -2.408,-3.671 -3.438,-5.913 -0.53,-1.149 -4.548,2.584 -5.219,3.006 -3.383,2.125 -11.574,5.907 -15.416,2.777 -3.732,-3.039 -1.566,-10.407 -0.477,-13.979 1.18,-3.851 -3.081,-0.342 -4.432,0.461 -3.168,1.885 -5.303,2.194 -7.518,5.138 -3.303,4.391 -7.078,8.692 -12.875,10.229 -5.748,1.525 -10.949,-0.027 -12.939,-5.63 -0.33,-0.928 -0.208,-5.138 -2.14,-3.061 -1.942,2.093 -4.227,3.895 -6.671,5.467 -5.222,3.36 -11.485,6.587 -18.072,5.898 -3.105,-0.324 -2.694,-2.518 -4.002,-4.355 -0.583,-0.821 -5.811,3.204 -6.513,3.64 -4.162,2.578 -10.5,3.916 -12.819,-1.489 -0.526,-1.229 -0.272,-4.547 -2.433,-2.966 -2.419,1.771 -5.104,3.211 -7.911,4.385 -4.843,2.025 -9.222,3.078 -11.904,-1.999 -1.315,-2.492 -1.698,-5.063 -0.436,-7.658 1.354,-2.775 -2.604,0.271 -3.114,0.685 -1.938,1.568 -4.535,1.462 -6.028,3.307 -2.121,2.618 -4.844,4.756 -7.876,6.426 -4.042,2.225 -10.442,5.021 -12.874,-0.443 -0.975,-2.189 -0.417,-3.622 -0.236,-5.846 0.34,-4.184 -4.985,-0.493 -6.304,0.434 -2.191,1.54 -6.026,2.956 -7.535,5.109 -1.202,1.715 -0.888,5.06 -1.233,7.021 -1.141,6.491 -2.788,13.047 -6.11,18.913 -4.836,8.541 -17.995,19.414 -28.606,11.497 -10.057,-7.504 5.739,-20.092 11.748,-24.589 5.021,-3.759 9.968,-7.675 15.437,-10.877 2.031,-1.189 4.279,-2.279 5.109,-4.523 0.903,-2.441 0.013,-5.327 0.384,-7.884 0.292,-2.014 0.481,-3.341 -1.679,-2.351 -2.811,1.29 -5.645,2.539 -8.429,3.878 -2.988,1.438 -5.944,2.932 -8.921,4.388 -2.588,1.267 -6.867,2.327 -8.319,4.871 -2.93,5.135 -3.049,11.666 -5.767,17.026 -2.64,5.204 -5.274,10.649 -9.982,14.572 -6.985,5.817 -27.471,12.917 -29.891,-0.786 -2.105,-11.926 14.93,-21.125 24.391,-25.43 3.156,-1.437 6.379,-2.741 9.581,-4.086 2.266,-0.952 7.492,-2.377 8.945,-4.247 1.325,-1.703 1.676,-5.445 2.195,-7.459 0.32,-1.242 2.226,-6.062 -0.784,-4.294 -5.32,3.125 -10.545,7.188 -16.139,9.806 -1.845,0.865 -3.104,-1.735 -1.486,-2.688 3.563,-2.1 7.155,-4.159 10.777,-6.171 2.484,-1.38 6.783,-2.766 8.601,-4.856 1.462,-1.682 2.143,-4.69 2.678,-6.722 1.581,-5.995 2.47,-11.934 4.979,-17.708 2.163,-4.98 5.204,-9.64 9.431,-13.357 3.423,-3.012 11.176,-8.346 16.271,-6.869 12.575,3.646 -3.34,24.068 -7.521,28.757 -3.938,4.417 -8.875,7.913 -13.846,11.273 -2.307,1.56 -5.428,2.833 -7.421,4.704 -2.039,1.914 -2.128,6.707 -2.748,9.243 -0.277,1.134 -2.118,5.563 0.859,4.166 3.082,-1.447 6.207,-2.814 9.287,-4.265 4.559,-2.146 12.501,-4.929 15.25,-9.2 1.207,-1.874 3.644,-0.512 3.847,1.215 0.285,2.429 -0.686,4.99 -0.779,7.454 -0.04,1.047 -1.102,6.321 1.234,5.198 3.646,-1.754 6.987,-3.99 10.229,-6.313 1.943,-1.393 2.476,-4.053 4.37,-5.646 2.112,-1.776 4.486,-3.284 7.068,-4.415 5.2,-2.279 10.969,-2.695 13.752,2.862 0.378,0.755 1.812,6.207 2.036,6.176 2.045,-0.278 4.586,-2.88 5.846,-4.258 4.312,-4.718 5.564,-11.967 8.11,-17.587 2.241,-4.947 13.782,-30.962 23.008,-25.349 4.602,2.801 1.255,11.477 -0.522,14.887 -3.163,6.07 -7.312,11.393 -12.111,16.425 -4.157,4.357 -8.956,7.839 -13.305,11.924 -2.865,2.692 -3.691,8.163 -2.409,11.642 1.971,5.353 9.326,1.122 12.546,-0.85 5.799,-3.55 8.136,-7.809 11.207,-13.316 0.54,-0.968 3.587,-5.077 4.699,-1.979 0.789,2.195 -2.104,4.997 -3.198,6.751 -1.579,2.532 -5.784,12.882 0.934,12.457 3.822,-0.242 8.823,-3.798 11.53,-6.143 4.16,-3.605 4.924,-9.543 7.882,-13.821 1.095,-1.583 4.125,-1.24 4.695,0.579 0.553,1.762 -2.564,5.121 -3.452,6.638 -1.031,1.764 -8.47,11.825 -1.28,11.199 5.93,-0.517 11.133,-3.147 15.73,-6.513 2.186,-1.602 4.912,-3.351 6.565,-5.45 2.027,-2.576 2.197,-6.567 2.9,-9.586 2.577,-11.069 6.335,-25.566 15.558,-33.674 3.812,-3.351 9.29,-3.553 9.873,2.3 0.616,6.198 -2.852,12.98 -6.088,18.219 -3.264,5.283 -7.364,10.064 -11.444,14.819 -4.2,4.896 -8.886,9.099 -4.758,15.576 2.903,4.557 9.338,2.052 12.91,-0.409 1.589,-1.094 4.187,-2.959 4.872,-4.743 0.381,-0.992 -4.933,0.497 -5.706,0.364 -2.855,-0.493 -3.356,-4.441 -2.065,-6.361 1.485,-2.211 3.711,-3.852 6.275,-4.889 2.227,-0.9 5.433,-2.221 6.937,0.313 0.637,1.069 0.854,4.29 2.87,3.541 2.859,-1.063 5.552,-2.835 8.151,-4.343 2.219,-1.289 2.706,-4.388 3.495,-6.475 2.444,-6.466 5.392,-12.764 8.658,-18.91 2.611,-4.914 5.762,-9.181 11.164,-11.747 6.082,-2.888 2.727,12.306 2.007,14.412 -1.938,5.661 -6.358,10.777 -10.724,15.033 -2.209,2.153 -4.62,4.126 -7.177,5.92 -3.172,2.225 -4.182,3.581 -5.259,7.128 -0.838,2.763 -3.215,11.885 2.048,12.076 6.173,0.224 11.606,-3.839 15.239,-8.026 1.896,-2.187 1.977,-5.241 3.809,-7.41 0.681,-0.807 2.33,-0.554 3.283,-0.957 1.107,-0.47 2.048,-1.198 2.991,-1.895 3.492,-2.577 12.51,-6.448 15.151,-0.98 1.229,2.544 -0.108,4.906 -0.856,7.358 -0.355,1.165 0.761,1.731 0.538,2.774 -0.258,1.215 -1.201,2.311 -1.555,3.534 -0.426,1.473 -2.111,5.602 0.925,5.816 2.438,0.173 5.707,-3.309 7.18,-4.796 3.738,-3.778 6.912,-9.713 5.458,-14.931 -0.719,-2.575 4.105,-3.257 4.843,-0.894 0.501,1.602 -1.573,5.815 2.044,5.549 0.556,-0.089 1.112,-0.088 1.667,0.002 3.95,-0.485 -1.236,-0.334 0,0 z m -284.36,57.104 c 11.075,-0.819 18.317,-8.362 22.929,-17.036 2.535,-4.768 4.334,-9.837 5.756,-14.975 0.354,-1.279 1.538,-3.607 -0.93,-2.597 -2.543,1.042 -5.087,2.083 -7.609,3.168 -8.6,3.697 -18.223,8.001 -24.483,14.816 -2.54,2.766 -5.63,7.006 -4.99,10.83 0.786,4.699 5.071,5.209 9.327,5.794 6.395,-0.472 -1.372,-0.188 0,0 z m 59.728,-32.225 c -0.764,-3.428 -6.934,2.639 -8.698,3.909 -3.747,2.698 -7.923,4.992 -11.383,8.014 -3.921,3.424 -16.03,13.1 -9.808,18.789 6.512,5.954 16.717,-0.907 20.807,-5.906 5.675,-6.94 8.373,-16.247 9.082,-24.806 -0.103,-0.46 -0.508,6.123 0,0 z m 8.557,-60.45 c 0.197,-9.184 -14.478,0.856 -17.303,3.716 -7.177,7.265 -9.294,17.819 -11.308,27.126 -1.296,5.992 0.14,3.118 4.09,0.859 4.355,-2.489 8.457,-5.412 11.868,-8.959 5.738,-5.968 12.547,-14.333 12.653,-22.742 0.066,-3.079 -0.035,2.779 0,0 z m 70.782,4.288 c -1.294,-9.994 -10.121,2.354 -12.355,5.761 -4.776,7.283 -7.629,15.06 -11.106,22.885 -1.305,2.933 -0.802,4.03 1.982,1.354 3.128,-3.007 6.385,-5.907 9.315,-9.084 5.232,-5.672 11.249,-13.345 12.164,-20.916 -0.068,-0.529 -0.239,1.983 0,0 z m 65.702,-1.651 c -0.848,-9.271 -9.918,3.252 -11.348,6.204 -3.742,7.718 -6.743,15.773 -8.383,24.108 -0.826,4.198 0.96,1.952 2.744,-0.196 2.527,-3.042 5.131,-6.031 7.52,-9.169 4.633,-6.085 8.884,-13.383 9.467,-20.947 -0.105,-1.149 -0.307,3.979 0,0 z m -106.306,40.785 c 0.441,-5.38 -4.756,-7.959 -9.683,-5.9 -0.987,0.413 -6.873,2.895 -6.294,4.272 0.255,0.606 2.201,0.969 1.315,1.934 -0.902,0.982 -1.409,2.177 -1.722,3.417 -1.093,4.327 -1.725,11.784 5.669,8.286 4.622,-2.184 11.149,-6.558 10.715,-12.009 0.385,-4.687 0.366,4.597 0,0 z m 162.895,-7.901 c -0.486,-10.423 -15.842,1.347 -17.098,6.654 -0.455,1.927 -1.41,4.109 -0.339,5.991 1.709,3.004 4.644,2.543 7.418,1.213 5.49,-2.63 8.773,-8.474 10.019,-13.858 -0.182,-3.926 -1.005,4.345 0,0 z m -17.972,-33.817 c 0.2,-3.496 -1.908,-2.053 -3.672,-0.251 -2.277,2.329 -4.179,4.956 -5.705,7.758 -2.996,5.506 -6.978,12.271 -8.342,18.319 -0.428,1.896 4.174,-1.982 4.441,-2.263 2.16,-2.265 4.563,-4.292 6.546,-6.706 4.022,-4.895 6.481,-10.688 6.732,-16.857 0.08,-1.408 -0.36,8.837 0,0 z m -37.123,35.907 c -0.218,-4.465 -5.184,-0.548 -6.701,1.026 -3.633,3.765 7.014,2.97 6.701,-1.026 -0.051,-1.061 0.094,1.194 0,0 z"
   fill="#8312ad"
   clip-rule="evenodd"
   fill-rule="evenodd" />
			<path
   id="path20"
   d="m 1165.075,682.12 c 1.939,0.211 3.464,0.257 4.004,2.304 0.484,1.843 -2.494,1.971 -3.601,2.672 -3.134,1.989 -5.818,6.073 -7.941,8.916 -0.594,0.796 -2.831,4.511 -3.901,1.82 -0.621,-1.562 2.33,-4.878 3.22,-6.071 1.495,-2.002 3.193,-3.868 4.976,-5.654 0.843,-0.847 1.989,-4.018 3.243,-3.987 0.971,0.106 -0.649,-0.016 0,0 z"
   fill="#8312ad"
   clip-rule="evenodd"
   fill-rule="evenodd" />
			<path
   id="path22"
   d="m 984.082,686.207 c 0.031,2.09 -1.222,1.961 -2.913,2.451 -1.884,0.546 -2.983,2.112 -4.158,3.455 -1.069,1.221 -2.162,2.259 -2.791,3.758 -0.544,1.297 -0.371,4.4 -2.858,3.146 -3.688,-1.86 2.985,-8.311 4.266,-9.727 0.692,-0.764 8.827,-8.832 8.454,-3.083 0.018,1.253 0.03,-0.477 0,0 z"
   fill="#8312ad"
   clip-rule="evenodd"
   fill-rule="evenodd" />
			<path
   id="path24"
   d="m 990.214,699.083 c -3.403,-0.228 0.907,-5.869 1.701,-6.978 1.248,-1.745 4.708,-7.808 7.613,-6.444 4.547,2.136 -1.605,3.955 -2.755,5.111 -1.35,1.359 -4.784,8.367 -6.559,8.311 -1.369,-0.092 0.634,0.02 0,0 z"
   fill="#8312ad"
   clip-rule="evenodd"
   fill-rule="evenodd" />
		</g>
	</g>
</g>
<g
   transform="translate(-574.97245,-439.99035)"
   id="Layer_2">
</g>
</svg>
